<?xml version="1.0" encoding="UTF-8"?>
<svg width="700pt" height="570pt" version="1.1" viewBox="0 0 700 570" xmlns="http://www.w3.org/2000/svg" xmlns:xlink="http://www.w3.org/1999/xlink">
 <defs>
  
 </defs>
 <g>
  <path d="m539.78 238.78h-30.332c-3.8906 0-7.7773-3.1094-7.7773-7.7773v-71.555c0-82.445-63.777-152.45-146.22-155.55-86.336-3.1133-157.89 66.109-157.89 152.44v75.445c0 3.8906-3.1094 7.7773-7.7773 7.7773h-30.332c-11.668 0-21 9.332-21 21v275.33c0 11.668 9.332 21 21 21h379.55c11.668 0 21-9.332 21-21v-276.11c0.77734-11.668-8.5547-21-20.223-21zm-294.78-82.445c0-59.891 49.777-108.11 110.45-105 56.777 3.1094 100.33 51.332 100.33 108.11v72.332c0 3.8906-3.1094 7.7773-7.7773 7.7773l-196 0.003907c-3.8906 0-7.7773-3.1094-7.7773-7.7773v-75.445z"/>
 </g>
</svg>
