<?xml version="1.0" encoding="UTF-8"?>
<svg width="700pt" height="570pt" version="1.1" viewBox="0 0 700 570" xmlns="http://www.w3.org/2000/svg" xmlns:xlink="http://www.w3.org/1999/xlink">
 
 <g>
  <path d="m605.11 231h-236.44c-3.8906 0-7-3.1094-7-7v-65.332c0-77.777-60.668-144.67-138.45-147.78-81.668-2.3359-149.33 63-149.33 144.66v87.109c0 3.1094 2.332 6.2227 6.2227 6.2227h32.668c3.1094 0 6.2227-2.332 6.2227-6.2227l-0.003906-84.773c0-53.668 41.223-99.555 94.891-102.67 57.555-3.1094 105 42.777 105 99.555v69.223c0 3.8906-3.1094 7-7 7h-33.445c-11.668 0-21 9.332-21 21v276.11c0 11.668 9.332 21 21 21h328.22c11.668 0 21-9.332 21-21v-276.11c-1.5586-11.668-10.891-21-22.559-21z"/>
 </g>
</svg>
